<svg aria-hidden="true" style="position: absolute; width: 0; height: 0; overflow: hidden;" version="1.1" xmlns="http://www.w3.org/2000/svg" xmlns:xlink="http://www.w3.org/1999/xlink">
<defs>

<symbol id="icon-arrow" viewBox="0 0 32 32">
<path stroke-linejoin="round" stroke-linecap="round" stroke-miterlimit="4" stroke-width="2.6" d="M15 28l13-13M28 15l-13-13M28 15h-26"></path>
</symbol>
<symbol id="icon-trash" viewBox="0 0 32 32">
<path fill="none" stroke="#f6f6f6" style="stroke: var(--color1, #f6f6f6)" stroke-linejoin="round" stroke-linecap="round" stroke-miterlimit="4" stroke-width="2.4" d="M21.333 8v-1.067c0-1.493 0-2.24-0.291-2.811-0.256-0.502-0.664-0.91-1.165-1.165-0.57-0.291-1.317-0.291-2.811-0.291h-2.133c-1.493 0-2.24 0-2.811 0.291-0.502 0.256-0.91 0.664-1.165 1.165-0.291 0.57-0.291 1.317-0.291 2.811v1.067M13.333 15.333v6.667M18.667 15.333v6.667M4 8h24M25.333 8v14.933c0 2.24 0 3.36-0.436 4.216-0.383 0.753-0.995 1.365-1.748 1.748-0.856 0.436-1.976 0.436-4.216 0.436h-5.867c-2.24 0-3.36 0-4.216-0.436-0.753-0.383-1.365-0.995-1.748-1.748-0.436-0.856-0.436-1.976-0.436-4.216v-14.933"></path>
</symbol>
<symbol id="icon-heart" viewBox="0 0 32 32">
<path fill="none" stroke="#f6f6f6" style="stroke: var(--color1, #f6f6f6)" stroke-linejoin="round" stroke-linecap="round" stroke-miterlimit="4" stroke-width="2.4" d="M27.787 6.147c-0.681-0.681-1.49-1.222-2.38-1.591s-1.844-0.559-2.807-0.559c-0.963 0-1.917 0.19-2.807 0.559s-1.699 0.909-2.38 1.591l-1.413 1.413-1.413-1.413c-1.376-1.376-3.241-2.148-5.187-2.148s-3.811 0.773-5.187 2.148c-1.376 1.376-2.148 3.241-2.148 5.187s0.773 3.811 2.148 5.187l11.787 11.787 11.787-11.787c0.681-0.681 1.222-1.49 1.591-2.38s0.559-1.844 0.559-2.807c0-0.963-0.19-1.917-0.559-2.807s-0.909-1.699-1.591-2.38z"></path>
</symbol>
<symbol id="icon-star" viewBox="0 0 32 32">
<path d="M14.478 2.283c0.479-1.474 2.564-1.474 3.043 0l2.43 7.478c0.214 0.659 0.828 1.106 1.522 1.106h7.863c1.55 0 2.194 1.983 0.94 2.894l-6.361 4.622c-0.561 0.407-0.795 1.13-0.581 1.789l2.43 7.478c0.479 1.474-1.208 2.7-2.462 1.789l-6.361-4.622c-0.561-0.407-1.32-0.407-1.881 0l-6.361 4.622c-1.254 0.911-2.941-0.315-2.462-1.789l2.43-7.478c0.214-0.659-0.020-1.381-0.581-1.789l-6.361-4.622c-1.254-0.911-0.61-2.894 0.94-2.894h7.863c0.693 0 1.308-0.446 1.522-1.106l2.43-7.478z"></path>
</symbol>
<symbol id="icon-inverted-commas" viewBox="0 0 32 32">
<path fill="#f6f6f6" style="fill: var(--color1, #f6f6f6)" d="M8.201 17.468c1.546-0.612 2.785-0.452 3.719 0.481s1.21 2.421 0.831 4.462c-0.292 1.517-0.933 2.683-1.925 3.5-0.962 0.788-2.085 1.181-3.369 1.181-1.75 0-2.96-0.671-3.631-2.013-0.671-1.371-0.802-3.208-0.394-5.512 0.233-1.254 0.613-2.523 1.137-3.806s1.225-2.596 2.1-3.937c0.875-1.342 2.013-2.508 3.413-3.5s2.946-1.633 4.638-1.925l-0.438 4.637c-1.429 0.292-2.698 1.035-3.806 2.231-1.108 1.167-1.867 2.567-2.275 4.2zM21.37 17.468c1.546-0.612 2.785-0.452 3.719 0.481s1.21 2.421 0.831 4.462c-0.292 1.517-0.933 2.683-1.925 3.5-0.963 0.788-2.085 1.181-3.369 1.181-1.75 0-2.96-0.671-3.631-2.013-0.671-1.371-0.802-3.208-0.394-5.512 0.233-1.254 0.613-2.523 1.138-3.806s1.225-2.596 2.1-3.937 2.012-2.508 3.412-3.5c1.4-0.992 2.946-1.633 4.638-1.925l-0.438 4.637c-1.429 0.292-2.698 1.035-3.806 2.231-1.108 1.167-1.867 2.567-2.275 4.2z"></path>
</symbol>
<symbol id="icon-running-man" viewBox="0 0 32 32">
<path fill="#f6f6f6" style="fill: var(--color1, #f6f6f6)" opacity="0.1" d="M30.118 16c0 8.317-6.742 15.059-15.059 15.059s-15.059-6.742-15.059-15.059c0-8.317 6.742-15.059 15.059-15.059s15.059 6.742 15.059 15.059z"></path>
<path fill="#f6f6f6" style="fill: var(--color1, #f6f6f6)" d="M23.275 12.148c-0.252-0.295-0.702-0.333-1.003-0.088l-1.976 1.622-0.909-2.2c-0.032-0.083-0.081-0.152-0.138-0.213-0.186-0.404-0.508-0.75-0.952-0.951-0.193-0.086-0.392-0.132-0.591-0.154-0.044-0.022-0.083-0.052-0.134-0.067l-3.477-0.947c-0.195-0.052-0.391-0.018-0.552 0.073-0.191 0.063-0.355 0.199-0.433 0.396l-1.309 3.289c-0.142 0.358 0.040 0.761 0.407 0.902 0.365 0.139 0.779-0.040 0.922-0.399l1.106-2.778 1.584 0.43c-0.039 0.061-0.080 0.118-0.112 0.183l-2.030 4.299c-0.029 0.063-0.045 0.127-0.066 0.193l-2.467 4.042-4.129 1.35c-0.467 0.341-0.566 0.985-0.221 1.441 0.347 0.458 1.008 0.555 1.474 0.217l4.225-1.422c0.129-0.092 0.223-0.212 0.294-0.341 0.053-0.055 0.114-0.099 0.154-0.167l1.471-2.41 2.611 2.174-2.794 3.076c-0.385 0.424-0.346 1.077 0.090 1.453 0.435 0.378 1.102 0.338 1.489-0.088l3.486-3.838c0.109-0.118 0.173-0.255 0.217-0.397 0.026-0.078 0.026-0.158 0.032-0.239 0-0.041 0.016-0.077 0.013-0.115-0.009-0.281-0.126-0.554-0.362-0.749l-2.403-2.002c0.173-0.161 0.32-0.353 0.427-0.578l1.556-3.293 0.499 1.298c0.021 0.115 0.061 0.228 0.144 0.323 0.075 0.088 0.171 0.146 0.273 0.187 0.010 0.005 0.023 0.006 0.035 0.009 0.065 0.023 0.13 0.044 0.198 0.047 0.080 0.007 0.162-0.003 0.244-0.025 0.002-0.001 0.003-0.001 0.003-0.001 0.022-0.005 0.044-0.001 0.066-0.010 0.116-0.043 0.204-0.115 0.281-0.2l2.835-2.352c0.301-0.248 0.174-0.686-0.079-0.981z"></path>
<path fill="#f6f6f6" style="fill: var(--color1, #f6f6f6)" d="M19.689 10.472c1.098 0 1.987-0.869 1.987-1.942s-0.89-1.942-1.987-1.942c-1.098 0-1.987 0.869-1.987 1.942s0.89 1.942 1.987 1.942z"></path>
</symbol>
<symbol id="icon-close" viewBox="0 0 32 32">
<path fill="#fff" style="fill: var(--color2, #fff)" d="M9.292 9.292c0.093-0.093 0.203-0.167 0.325-0.217s0.252-0.076 0.383-0.076c0.132 0 0.262 0.026 0.383 0.076s0.232 0.124 0.325 0.217l5.292 5.294 5.292-5.294c0.093-0.093 0.203-0.167 0.325-0.217s0.252-0.076 0.383-0.076c0.131 0 0.262 0.026 0.383 0.076s0.232 0.124 0.325 0.217 0.167 0.203 0.217 0.325c0.050 0.121 0.076 0.252 0.076 0.383s-0.026 0.262-0.076 0.383c-0.050 0.121-0.124 0.232-0.217 0.325l-5.294 5.292 5.294 5.292c0.093 0.093 0.167 0.203 0.217 0.325s0.076 0.252 0.076 0.383c0 0.131-0.026 0.262-0.076 0.383s-0.124 0.232-0.217 0.325-0.203 0.167-0.325 0.217c-0.121 0.050-0.252 0.076-0.383 0.076s-0.262-0.026-0.383-0.076c-0.122-0.050-0.232-0.124-0.325-0.217l-5.292-5.294-5.292 5.294c-0.093 0.093-0.203 0.167-0.325 0.217s-0.252 0.076-0.383 0.076-0.262-0.026-0.383-0.076c-0.121-0.050-0.232-0.124-0.325-0.217s-0.167-0.203-0.217-0.325c-0.050-0.122-0.076-0.252-0.076-0.383s0.026-0.262 0.076-0.383c0.050-0.122 0.124-0.232 0.217-0.325l5.294-5.292-5.294-5.292c-0.093-0.093-0.167-0.203-0.217-0.325s-0.076-0.252-0.076-0.383 0.026-0.262 0.076-0.383c0.050-0.121 0.124-0.232 0.217-0.325z"></path>
</symbol>
<symbol id="icon-search" viewBox="0 0 32 32">
    <path stroke-linejoin="round" stroke-linecap="round" stroke-miterlimit="4" stroke-width="2.6667" d="M14.667 25.333c5.891 0 10.667-4.776 10.667-10.667s-4.776-10.667-10.667-10.667v0c-5.891 0-10.667 4.776-10.667 10.667s4.776 10.667 10.667 10.667v0zM28 28l-5.801-5.799"></path>
    </symbol>


 <symbol id="favorites-icon-run-man-quote" viewBox="0 0 28 28">
<path fill="rgba(246, 246, 246, 0.1)" style="fill: rgba(246, 246, 246, 0.1)" d="M28 14c0 7.732-6.268 14-14 14s-14-6.268-14-14c0-7.732 6.268-14 14-14s14 6.268 14 14z"></path>
<path fill="#f6f6f6" style="fill: var(--color1, #f6f6f6)" d="M21.961 10.18c-0.245-0.292-0.68-0.331-0.972-0.087l-1.914 1.608-0.88-2.181c-0.031-0.082-0.079-0.151-0.133-0.211-0.18-0.4-0.492-0.744-0.923-0.943-0.187-0.085-0.38-0.13-0.573-0.153-0.042-0.022-0.081-0.052-0.129-0.067l-3.369-0.939c-0.189-0.052-0.379-0.018-0.535 0.073-0.185 0.063-0.344 0.197-0.42 0.392l-1.269 3.262c-0.137 0.355 0.038 0.755 0.394 0.895 0.354 0.137 0.755-0.039 0.894-0.395l1.071-2.754 1.534 0.427c-0.037 0.061-0.078 0.117-0.108 0.182l-1.967 4.264c-0.028 0.063-0.043 0.126-0.064 0.191l-2.391 4.008-4.001 1.338c-0.453 0.339-0.549 0.976-0.214 1.429 0.337 0.454 0.976 0.55 1.428 0.215l4.094-1.41c0.125-0.091 0.216-0.21 0.285-0.339 0.052-0.055 0.11-0.098 0.15-0.166l1.425-2.39 2.53 2.156-2.707 3.051c-0.373 0.421-0.336 1.068 0.087 1.44 0.421 0.375 1.067 0.336 1.442-0.087l3.378-3.806c0.105-0.117 0.168-0.253 0.21-0.394 0.025-0.077 0.025-0.157 0.031-0.236 0-0.040 0.015-0.077 0.012-0.114-0.009-0.279-0.122-0.55-0.351-0.743l-2.328-1.985c0.168-0.16 0.31-0.35 0.413-0.573l1.508-3.266 0.483 1.287c0.020 0.114 0.059 0.226 0.14 0.32 0.073 0.087 0.166 0.145 0.265 0.185 0.010 0.005 0.022 0.006 0.034 0.009 0.063 0.022 0.126 0.044 0.192 0.047 0.078 0.007 0.157-0.003 0.236-0.025 0.002-0.001 0.003-0.001 0.003-0.001 0.021-0.005 0.042-0.001 0.064-0.010 0.112-0.042 0.198-0.114 0.272-0.198l2.747-2.332c0.292-0.246 0.169-0.68-0.077-0.972z"></path>
<path fill="#f6f6f6" style="fill: var(--color1, #f6f6f6)" d="M18.485 8.518c1.064 0 1.926-0.862 1.926-1.926s-0.862-1.926-1.926-1.926c-1.063 0-1.926 0.862-1.926 1.926s0.862 1.926 1.926 1.926z"></path>
</symbol>

 feature/scroll-button
<symbol id="icon-up-arrow" viewBox="0 0 33 32">
<path fill="#f6f6f6" style="fill: var(--color1, #f6f6f6)" d="M17.619 5.478v25.528h-2.716v-25.528l-12.764 12.764-1.92-1.92 16.042-16.043 16.043 16.043-1.92 1.92-12.764-12.764z"></path>
</symbol>

<symbol id="favorites=icon-run-exercises" viewBox="0 0 28 28">
<path fill="#7e847f" style="fill: var(--color2, #7e847f)" d="M28 14c0 7.732-6.268 14-14 14s-14-6.268-14-14c0-7.732 6.268-14 14-14s14 6.268 14 14z"></path>
<path fill="#f6f6f6" style="fill: var(--color1, #f6f6f6)" d="M21.961 10.18c-0.245-0.292-0.68-0.331-0.972-0.087l-1.914 1.608-0.88-2.181c-0.031-0.082-0.079-0.151-0.133-0.211-0.18-0.4-0.492-0.744-0.923-0.943-0.187-0.085-0.38-0.13-0.573-0.153-0.042-0.022-0.081-0.052-0.129-0.067l-3.369-0.939c-0.189-0.052-0.379-0.018-0.535 0.073-0.185 0.063-0.344 0.197-0.42 0.392l-1.269 3.262c-0.137 0.355 0.038 0.755 0.394 0.895 0.354 0.137 0.755-0.039 0.894-0.395l1.071-2.754 1.534 0.427c-0.037 0.061-0.078 0.117-0.108 0.182l-1.967 4.264c-0.028 0.063-0.043 0.126-0.064 0.191l-2.391 4.008-4.001 1.338c-0.453 0.339-0.549 0.976-0.214 1.429 0.337 0.454 0.976 0.55 1.428 0.215l4.094-1.41c0.125-0.091 0.216-0.21 0.285-0.339 0.052-0.055 0.11-0.098 0.15-0.166l1.425-2.39 2.53 2.156-2.707 3.051c-0.373 0.421-0.336 1.068 0.087 1.44 0.421 0.375 1.067 0.336 1.442-0.087l3.378-3.806c0.105-0.117 0.168-0.253 0.21-0.394 0.025-0.077 0.025-0.157 0.031-0.236 0-0.040 0.015-0.077 0.012-0.114-0.009-0.279-0.122-0.55-0.351-0.743l-2.328-1.985c0.168-0.16 0.31-0.35 0.413-0.573l1.508-3.266 0.483 1.287c0.020 0.114 0.059 0.226 0.14 0.32 0.073 0.087 0.166 0.145 0.265 0.185 0.010 0.005 0.022 0.006 0.034 0.009 0.063 0.022 0.126 0.044 0.192 0.047 0.078 0.007 0.157-0.003 0.236-0.025 0.002-0.001 0.003-0.001 0.003-0.001 0.021-0.005 0.042-0.001 0.064-0.010 0.112-0.042 0.198-0.114 0.272-0.198l2.747-2.332c0.292-0.246 0.169-0.68-0.077-0.972z"></path>
<path fill="#f6f6f6" style="fill: var(--color1, #f6f6f6)" d="M18.485 8.518c1.064 0 1.926-0.862 1.926-1.926s-0.862-1.926-1.926-1.926c-1.063 0-1.926 0.862-1.926 1.926s0.862 1.926 1.926 1.926z"></path>
</symbol>

<symbol id="icon-align-justify" viewBox="0 0 64 32">
<path fill="none" stroke="#7e847f" style="stroke: var(--color1, #7e847f)" stroke-linejoin="round" stroke-linecap="round" stroke-miterlimit="4" stroke-width="4" d="M56 20.667h-48"></path>
<path fill="none" stroke="#7e847f" style="stroke: var(--color1, #7e847f)" stroke-linejoin="round" stroke-linecap="round" stroke-miterlimit="4" stroke-width="4" d="M56 10h-48"></path>
</symbol>

<symbol id="icon-trash-favotites" viewBox="0 0 32 32">
<path fill="none" stroke="#var(--secondary-color)" style="stroke: var(--color1, #var(--secondary-color))" stroke-linejoin="round" stroke-linecap="round" stroke-miterlimit="4" stroke-width="2.4" d="M21.333 8v-1.067c0-1.493 0-2.24-0.291-2.811-0.256-0.502-0.664-0.91-1.165-1.165-0.57-0.291-1.317-0.291-2.811-0.291h-2.133c-1.493 0-2.24 0-2.811 0.291-0.502 0.256-0.91 0.664-1.165 1.165-0.291 0.57-0.291 1.317-0.291 2.811v1.067M13.333 15.333v6.667M18.667 15.333v6.667M4 8h24M25.333 8v14.933c0 2.24 0 3.36-0.436 4.216-0.383 0.753-0.995 1.365-1.748 1.748-0.856 0.436-1.976 0.436-4.216 0.436h-5.867c-2.24 0-3.36 0-4.216-0.436-0.753-0.383-1.365-0.995-1.748-1.748-0.436-0.856-0.436-1.976-0.436-4.216v-14.933"></path>
</symbol>


<symbol id="icon-menu" viewBox="0 0 32 32">
<path fill="none" stroke="#fafafa" style="stroke: var(--color1, #fafafa)" stroke-linejoin="round" stroke-linecap="round" stroke-miterlimit="4" stroke-width="2.2857" d="M4 11.333h24M4 20.667h24"></path>
</symbol>

<symbol id="icon-x" viewBox="0 0 32 32">
<path fill="none" stroke="#fafafa" style="stroke: var(--color1, #fafafa)" stroke-linejoin="round" stroke-linecap="round" stroke-miterlimit="4" stroke-width="2.2857" d="M24 8l-16 16"></path>
<path fill="none" stroke="#fafafa" style="stroke: var(--color1, #fafafa)" stroke-linejoin="round" stroke-linecap="round" stroke-miterlimit="4" stroke-width="2.2857" d="M8 8l16 16"></path>
</symbol>

<symbol id="icon-dropdown" fill="none" viewBox="0 0 16 8 ">
<path d="M4 1.5L8 5.5L12 1.5" stroke-opacity="0.8" stroke-width="1.5" stroke-linecap="round" stroke-linejoin="round" shape-rendering="crispEdges"/>
</symbol>

<symbol id="icon-jefferson" viewBox="0 0 64 32">
<path fill="#fafafa" style="fill: var(--color1, #fafafa)" d="M55.942 15.158l0.234-4.936-4.313 2.685-1.337-2.219 4.581-2.251-4.581-2.251 1.337-2.251 4.313 2.685-0.234-4.936h2.641l-0.234 4.936 4.313-2.685 1.337 2.251-4.58 2.251 4.58 2.251-1.337 2.219-4.313-2.685 0.234 4.936h-2.641z"></path>
<path fill="#fafafa" style="fill: var(--color1, #fafafa)" d="M46.213 7.158v2.834h-10.844v-2.834h10.844zM38.325 25.263v-20.211c0-1.123 0.264-2.057 0.791-2.802 0.539-0.756 1.237-1.317 2.097-1.684 0.871-0.378 1.805-0.567 2.801-0.567 0.768 0 1.421 0.059 1.959 0.178s0.934 0.221 1.186 0.308l-0.894 2.85c-0.172-0.054-0.395-0.113-0.67-0.178-0.264-0.065-0.596-0.097-0.997-0.097-0.905 0-1.558 0.216-1.959 0.648-0.401 0.421-0.601 1.036-0.601 1.846v19.709h-3.712z"></path>
<path fill="#fafafa" style="fill: var(--color1, #fafafa)" d="M36.108 7.158v2.834h-10.844v-2.834h10.844zM28.219 25.263v-20.211c0-1.123 0.264-2.057 0.791-2.802 0.538-0.756 1.237-1.317 2.097-1.684 0.871-0.378 1.805-0.567 2.801-0.567 0.768 0 1.421 0.059 1.959 0.178s0.934 0.221 1.186 0.308l-0.894 2.85c-0.172-0.054-0.395-0.113-0.67-0.178-0.264-0.065-0.596-0.097-0.997-0.097-0.905 0-1.558 0.216-1.959 0.648-0.401 0.421-0.601 1.036-0.601 1.846v19.709h-3.712z"></path>
<path fill="#fafafa" style="fill: var(--color1, #fafafa)" d="M17.291 25.263c-1.82 0-3.395-0.38-4.726-1.139s-2.358-1.829-3.079-3.208c-0.71-1.39-1.065-3.010-1.065-4.86 0-1.839 0.35-3.459 1.048-4.86 0.71-1.401 1.703-2.492 2.979-3.272 1.287-0.791 2.796-1.187 4.527-1.187 1.054 0 2.075 0.166 3.062 0.497s1.875 0.855 2.663 1.572c0.788 0.716 1.409 1.647 1.864 2.791 0.466 1.144 0.699 2.524 0.699 4.138v1.251h-14.795v-2.615h12.931l-1.681 0.866c0-1.101-0.177-2.075-0.533-2.919s-0.888-1.502-1.598-1.973c-0.699-0.481-1.57-0.722-2.613-0.722s-1.936 0.241-2.679 0.722c-0.732 0.481-1.293 1.117-1.681 1.909s-0.582 1.657-0.582 2.598v1.78c0 1.23 0.222 2.272 0.666 3.128s1.060 1.508 1.847 1.957c0.799 0.449 1.725 0.674 2.779 0.674 0.688 0 1.309-0.096 1.864-0.289 0.566-0.193 1.054-0.481 1.465-0.866s0.721-0.861 0.932-1.428l3.428 0.625c-0.277 0.962-0.766 1.807-1.464 2.534s-1.581 1.294-2.646 1.7c-1.054 0.396-2.258 0.593-3.611 0.593z"></path>
<path fill="#fafafa" style="fill: var(--color1, #fafafa)" d="M2.878 7.012h3.416v19.376c0.011 1.215-0.2 2.24-0.633 3.075s-1.065 1.464-1.898 1.887c-0.833 0.434-1.856 0.651-3.068 0.651h-0.696v-3.042h0.553c0.822 0 1.413-0.222 1.771-0.667s0.543-1.085 0.554-1.92v-19.36zM4.57 4.213c-0.601 0-1.112-0.206-1.534-0.618s-0.633-0.906-0.633-1.48c0-0.586 0.211-1.085 0.633-1.497s0.933-0.618 1.534-0.618c0.59 0 1.096 0.206 1.518 0.618 0.432 0.412 0.648 0.911 0.648 1.497 0 0.575-0.216 1.068-0.648 1.48-0.422 0.412-0.928 0.618-1.518 0.618z"></path>
</symbol>

</defs>
</svg>
